<mxfile host="app.diagrams.net" modified="2023-04-12T08:21:22.483Z" agent="Mozilla/5.0 (Windows NT 10.0; Win64; x64) AppleWebKit/537.36 (KHTML, like Gecko) Chrome/107.0.0.0 Safari/537.36" version="21.1.6" etag="WVUXHz2tz3s0NDhLKWBI" type="github">
  <diagram name="第 1 页" id="cJfjbBwjc6jE9hHtcgu-">
    <mxGraphModel>
      <root>
        <mxCell id="0" />
        <mxCell id="1" parent="0" />
      </root>
    </mxGraphModel>
  </diagram>
</mxfile>
